<svg width="849" height="849" viewBox="0 0 849 849" fill="none" xmlns="http://www.w3.org/2000/svg">
<path d="M789.332 515.156C764.321 582.108 713.245 654.579 641.369 676.042C532.697 708.474 519.792 796.005 325.269 787.889C296.854 786.843 268.637 782.71 241.116 775.562C227.681 772.011 214.484 767.616 201.604 762.402C87.9564 716.369 28.6792 615.067 23.772 509.077C17.2856 369.655 114.547 303.212 177.764 264.311C240.98 225.41 317.169 74.712 508.449 81.1135C537.659 81.9899 566.671 86.2289 594.911 93.7466C659.282 111.168 724.706 149.696 762.742 206.018C765.594 210.263 768.322 214.588 770.926 218.991C821.832 305.334 823.411 423.872 789.332 515.156Z" fill="#FF8538"/>
<path opacity="0.7" d="M789.332 515.156C764.321 582.108 713.245 654.579 641.369 676.042C532.697 708.474 519.792 796.005 325.269 787.889C296.854 786.843 268.637 782.71 241.116 775.562C227.681 772.011 214.484 767.616 201.604 762.402C87.9564 716.369 28.6792 615.067 23.772 509.077C17.2856 369.655 114.547 303.212 177.764 264.311C240.98 225.41 317.169 74.712 508.449 81.1135C537.659 81.9899 566.671 86.2289 594.911 93.7466C659.282 111.168 724.706 149.696 762.742 206.018C765.594 210.263 768.322 214.588 770.926 218.991C821.832 305.334 823.411 423.872 789.332 515.156Z" fill="white"/>
<path d="M22.074 721.65H806.55" stroke="#263238" stroke-linecap="round" stroke-linejoin="round"/>
<path d="M745.88 92.4562C745.88 91.9808 745.88 91.5223 745.88 91.0299C745.888 83.5273 743.176 76.2763 738.247 70.6198C733.318 64.9633 726.507 61.2847 719.074 60.2651C711.641 59.2456 704.09 60.9543 697.82 65.0748C691.55 69.1953 686.986 75.4483 684.973 82.6757C680.122 83.1735 675.627 85.4487 672.353 89.0631C669.079 92.6775 667.258 97.3754 667.241 102.252C667.225 107.129 669.013 111.839 672.261 115.476C675.51 119.113 679.99 121.419 684.837 121.95V122.069H745.575C749.502 122.101 753.28 120.571 756.079 117.817C758.878 115.062 760.469 111.309 760.5 107.382C760.532 103.455 759.002 99.676 756.248 96.877C753.493 94.0779 749.74 92.4877 745.813 92.4562H745.88Z" fill="white" stroke="#263238" stroke-linecap="round" stroke-linejoin="round"/>
<path d="M731.227 115.889L712.871 91.0298L694.516 115.889H701.682V128.131H724.061V115.889H731.227Z" fill="#263238" stroke="#263238" stroke-linecap="round" stroke-linejoin="round"/>
<path d="M127.214 181.024H120.117C119.385 177.966 118.152 175.051 116.466 172.398L121.679 167.168C122.892 165.954 123.574 164.308 123.574 162.592C123.574 160.876 122.892 159.23 121.679 158.016C120.465 156.802 118.819 156.12 117.103 156.12C115.386 156.12 113.74 156.802 112.526 158.016L107.246 163.297C104.611 161.728 101.746 160.582 98.7557 159.901V152.124C98.6706 150.463 97.951 148.899 96.7455 147.753C95.54 146.608 93.9407 145.969 92.2778 145.969C90.615 145.969 89.0156 146.608 87.8101 147.753C86.6046 148.899 85.885 150.463 85.7999 152.124V159.85C82.8745 160.533 80.0772 161.679 77.5137 163.246L71.9443 157.676C70.728 156.461 69.079 155.778 67.3597 155.778C65.6403 155.778 63.9913 156.461 62.7751 157.676C61.5691 158.894 60.8926 160.539 60.8926 162.252C60.8926 163.966 61.5691 165.611 62.7751 166.829L68.2426 172.279C66.6075 174.821 65.3867 177.606 64.6259 180.531H56.9679C55.2476 180.531 53.5978 181.215 52.3813 182.431C51.1649 183.648 50.4815 185.297 50.4815 187.018C50.486 188.735 51.1714 190.381 52.3873 191.593C53.6033 192.806 55.2505 193.487 56.9679 193.487H64.3882C65.0351 196.53 66.1827 199.445 67.7842 202.113L62.4864 207.326C61.2727 208.539 60.5909 210.186 60.5909 211.902C60.5909 213.618 61.2727 215.264 62.4864 216.478C63.7001 217.692 65.3461 218.374 67.0625 218.374C68.7789 218.374 70.425 217.692 71.6386 216.478L76.6307 211.503C79.3044 213.262 82.2548 214.559 85.3585 215.34V222.438C85.3135 223.317 85.4477 224.195 85.7529 225.02C86.0581 225.845 86.528 226.6 87.1339 227.238C87.7399 227.875 88.4693 228.383 89.2776 228.73C90.086 229.077 90.9566 229.256 91.8363 229.256C92.7161 229.256 93.5866 229.077 94.395 228.73C95.2034 228.383 95.9328 227.875 96.5387 227.238C97.1447 226.6 97.6145 225.845 97.9198 225.02C98.225 224.195 98.3592 223.317 98.3142 222.438V215.646C101.493 214.972 104.532 213.754 107.297 212.046L112.17 216.92C112.771 217.521 113.484 217.998 114.269 218.323C115.054 218.648 115.896 218.816 116.746 218.816C117.596 218.816 118.438 218.648 119.223 218.323C120.008 217.998 120.721 217.521 121.322 216.92V216.92C122.537 215.703 123.22 214.054 123.22 212.335C123.22 210.616 122.537 208.967 121.322 207.75L116.5 202.928C118.222 200.198 119.468 197.195 120.184 194.047H127.214C128.875 193.962 130.439 193.243 131.585 192.037C132.73 190.832 133.369 189.232 133.369 187.57C133.369 185.907 132.73 184.307 131.585 183.102C130.439 181.896 128.875 181.177 127.214 181.092V181.024ZM92.3372 203.098C89.2704 203.098 86.2724 202.188 83.7226 200.484C81.1728 198.78 79.1858 196.358 78.013 193.524C76.8401 190.69 76.5341 187.572 77.1336 184.564C77.7332 181.557 79.2114 178.794 81.3812 176.627C83.551 174.46 86.3149 172.984 89.3232 172.388C92.3316 171.792 95.4492 172.101 98.2817 173.277C101.114 174.453 103.534 176.443 105.236 178.995C106.937 181.546 107.843 184.545 107.84 187.612C107.847 189.651 107.451 191.672 106.674 193.558C105.898 195.444 104.757 197.157 103.316 198.601C101.876 200.045 100.164 201.19 98.2804 201.97C96.3963 202.75 94.3766 203.151 92.3372 203.149V203.098Z" stroke="#263238" stroke-linecap="round" stroke-linejoin="round"/>
<path d="M170.038 116.092H163.008C162.277 113.035 161.043 110.12 159.357 107.466L164.587 102.236C165.801 101.021 166.482 99.3723 166.48 97.6544C166.479 95.9364 165.795 94.2894 164.579 93.0758C163.363 91.8621 161.715 91.1812 159.997 91.1828C158.279 91.1844 156.632 91.8683 155.418 93.0843L150.137 98.365C147.506 96.7891 144.64 95.6428 141.647 94.969V87.1922C141.562 85.5315 140.843 83.9669 139.637 82.8216C138.432 81.6762 136.832 81.0376 135.169 81.0376C133.506 81.0376 131.907 81.6762 130.702 82.8216C129.496 83.9669 128.776 85.5315 128.691 87.1922V94.9181C125.766 95.6013 122.969 96.7478 120.405 98.3141L114.836 92.7447C114.235 92.1434 113.522 91.6665 112.736 91.3411C111.951 91.0157 111.11 90.8483 110.26 90.8483C109.41 90.8483 108.568 91.0157 107.783 91.3411C106.998 91.6665 106.284 92.1434 105.684 92.7447V92.7447C105.082 93.3455 104.605 94.0588 104.28 94.844C103.955 95.6292 103.787 96.4708 103.787 97.3208C103.787 98.1707 103.955 99.0123 104.28 99.7975C104.605 100.583 105.082 101.296 105.684 101.897L111.134 107.347C109.499 109.889 108.278 112.675 107.517 115.6H99.7915C98.0889 115.622 96.4633 116.313 95.2657 117.523C94.068 118.734 93.3943 120.366 93.39 122.069V122.069C93.3945 123.786 94.0799 125.432 95.2958 126.645C96.5118 127.857 98.159 128.538 99.8764 128.538H107.297C107.951 131.58 109.098 134.493 110.693 137.164L105.276 142.394C104.675 142.996 104.199 143.711 103.874 144.497C103.549 145.283 103.382 146.126 103.383 146.976C103.384 147.827 103.552 148.669 103.878 149.455C104.205 150.24 104.682 150.954 105.285 151.555C105.887 152.156 106.601 152.632 107.387 152.957C108.173 153.282 109.016 153.449 109.867 153.448C110.717 153.447 111.559 153.279 112.345 152.953C113.131 152.626 113.844 152.148 114.445 151.546L119.437 146.571C122.103 148.333 125.049 149.631 128.148 150.409V157.438C128.103 158.317 128.237 159.196 128.543 160.021C128.848 160.846 129.318 161.6 129.924 162.238C130.53 162.876 131.259 163.384 132.067 163.731C132.876 164.078 133.746 164.257 134.626 164.257C135.506 164.257 136.376 164.078 137.185 163.731C137.993 163.384 138.722 162.876 139.328 162.238C139.934 161.6 140.404 160.846 140.709 160.021C141.015 159.196 141.149 158.317 141.104 157.438V150.646C144.284 149.975 147.323 148.757 150.086 147.047L154.96 151.92C155.56 152.521 156.274 152.998 157.059 153.323C157.844 153.649 158.686 153.816 159.536 153.816C160.386 153.816 161.227 153.649 162.012 153.323C162.798 152.998 163.511 152.521 164.112 151.92V151.92C165.327 150.704 166.01 149.055 166.01 147.335C166.01 145.616 165.327 143.967 164.112 142.751L159.289 137.928C161.024 135.201 162.281 132.198 163.008 129.048H170.038C171.698 128.963 173.263 128.243 174.408 127.038C175.554 125.832 176.192 124.233 176.192 122.57C176.192 120.907 175.554 119.308 174.408 118.102C173.263 116.897 171.698 116.177 170.038 116.092V116.092ZM135.178 138.166C132.11 138.17 129.111 137.263 126.559 135.561C124.007 133.858 122.017 131.437 120.841 128.604C119.666 125.77 119.358 122.652 119.955 119.643C120.553 116.634 122.03 113.87 124.199 111.701C126.368 109.532 129.132 108.055 132.141 107.458C135.149 106.86 138.268 107.169 141.101 108.344C143.935 109.519 146.356 111.509 148.058 114.061C149.76 116.613 150.667 119.613 150.664 122.68C150.67 124.718 150.275 126.737 149.499 128.622C148.724 130.507 147.585 132.22 146.146 133.663C144.707 135.107 142.998 136.252 141.116 137.033C139.234 137.815 137.216 138.217 135.178 138.217V138.166Z" stroke="#263238" stroke-linecap="round" stroke-linejoin="round"/>
<path d="M31.7017 365.376H94.7824C96.1334 365.376 97.429 365.912 98.3844 366.868C99.3397 367.823 99.8764 369.119 99.8764 370.47V444.706C99.8764 447.134 98.9121 449.462 97.1957 451.178C95.4794 452.894 93.1515 453.859 90.7241 453.859H35.8108C33.3835 453.859 31.0556 452.894 29.3392 451.178C27.6228 449.462 26.6586 447.134 26.6586 444.706V370.419C26.6719 369.085 27.2074 367.81 28.1503 366.867C29.0932 365.925 30.3683 365.389 31.7017 365.376V365.376Z" fill="white" stroke="#263238" stroke-linecap="round" stroke-linejoin="round"/>
<path d="M31.7016 365.376H94.7824C96.1334 365.376 97.429 365.912 98.3844 366.868C99.3397 367.823 99.8764 369.119 99.8764 370.47V374.358H26.6756V370.47C26.6754 369.13 27.2028 367.845 28.1435 366.892C29.0841 365.938 30.3624 365.394 31.7016 365.376V365.376Z" fill="#263238" stroke="#263238" stroke-linecap="round" stroke-linejoin="round"/>
<path d="M81.9964 370.011C81.9964 369.541 81.857 369.081 81.5958 368.691C81.3346 368.3 80.9633 367.995 80.5289 367.815C80.0945 367.635 79.6166 367.588 79.1554 367.68C78.6943 367.771 78.2707 367.998 77.9383 368.33C77.6058 368.663 77.3794 369.086 77.2877 369.547C77.196 370.009 77.243 370.487 77.423 370.921C77.6029 371.355 77.9076 371.727 78.2985 371.988C78.6894 372.249 79.149 372.388 79.6192 372.388C80.2497 372.388 80.8543 372.138 81.3001 371.692C81.746 371.246 81.9964 370.642 81.9964 370.011Z" fill="white" stroke="#263238" stroke-linecap="round" stroke-linejoin="round"/>
<path d="M89.6035 370.011C89.6035 369.541 89.464 369.081 89.2028 368.691C88.9416 368.3 88.5704 367.995 88.136 367.815C87.7016 367.635 87.2236 367.588 86.7625 367.68C86.3014 367.771 85.8778 367.998 85.5453 368.33C85.2129 368.663 84.9865 369.086 84.8947 369.547C84.803 370.009 84.8501 370.487 85.03 370.921C85.2099 371.355 85.5146 371.727 85.9056 371.988C86.2965 372.249 86.7561 372.388 87.2263 372.388C87.8567 372.388 88.4614 372.138 88.9072 371.692C89.353 371.246 89.6035 370.642 89.6035 370.011Z" fill="white" stroke="#263238" stroke-linecap="round" stroke-linejoin="round"/>
<path d="M97.2275 370.011C97.2309 369.537 97.0933 369.072 96.8323 368.677C96.5713 368.281 96.1985 367.971 95.7614 367.787C95.3242 367.603 94.8423 367.554 94.3767 367.644C93.9112 367.735 93.483 367.961 93.1465 368.295C92.81 368.629 92.5802 369.056 92.4865 369.521C92.3927 369.986 92.4391 370.468 92.6198 370.907C92.8005 371.345 93.1074 371.72 93.5014 371.984C93.8955 372.248 94.3591 372.388 94.8333 372.388C95.4654 372.388 96.0718 372.139 96.5203 371.693C96.9688 371.248 97.223 370.643 97.2275 370.011V370.011Z" fill="white" stroke="#263238" stroke-linecap="round" stroke-linejoin="round"/>
<path d="M54.4549 384.461L41.9236 394.377L54.4549 404.294" stroke="#263238" stroke-width="3" stroke-linecap="round" stroke-linejoin="round"/>
<path d="M71.6556 384.461L84.1869 394.377L71.6556 404.294" stroke="#263238" stroke-width="3" stroke-linecap="round" stroke-linejoin="round"/>
<path d="M64.6598 382.135L60.8733 406.043" stroke="#263238" stroke-width="3" stroke-linecap="round" stroke-linejoin="round"/>
<path d="M78.4646 417.368H92.3033" stroke="#263238" stroke-linecap="round" stroke-linejoin="round"/>
<path d="M57.9358 417.368H75.9346" stroke="#263238" stroke-linecap="round" stroke-linejoin="round"/>
<path d="M42.8066 417.368H53.9794" stroke="#263238" stroke-linecap="round" stroke-linejoin="round"/>
<path d="M35.0637 417.368H40.2935" stroke="#263238" stroke-linecap="round" stroke-linejoin="round"/>
<path d="M84.2208 425.536H92.3033" stroke="#263238" stroke-linecap="round" stroke-linejoin="round"/>
<path d="M43.8933 425.536H80.2645" stroke="#263238" stroke-linecap="round" stroke-linejoin="round"/>
<path d="M35.0637 425.536H39.5634" stroke="#263238" stroke-linecap="round" stroke-linejoin="round"/>
<path d="M64.7787 433.72H92.3033" stroke="#263238" stroke-linecap="round" stroke-linejoin="round"/>
<path d="M41.7368 433.72H59.7356" stroke="#263238" stroke-linecap="round" stroke-linejoin="round"/>
<path d="M35.0637 433.72H38.8502" stroke="#263238" stroke-linecap="round" stroke-linejoin="round"/>
<path d="M84.5774 441.905H92.3033" stroke="#263238" stroke-linecap="round" stroke-linejoin="round"/>
<path d="M58.2923 441.905H80.2644" stroke="#263238" stroke-linecap="round" stroke-linejoin="round"/>
<path d="M35.0637 441.905H53.9794" stroke="#263238" stroke-linecap="round" stroke-linejoin="round"/>
<path d="M56.917 381.541H119.998C121.349 381.541 122.644 382.077 123.6 383.033C124.555 383.988 125.092 385.284 125.092 386.635V460.939C125.092 463.367 124.127 465.694 122.411 467.411C120.695 469.127 118.367 470.091 115.939 470.091H61.0261C58.5988 470.091 56.2709 469.127 54.5545 467.411C52.8381 465.694 51.8739 463.367 51.8739 460.939V386.584C51.8872 385.25 52.4228 383.975 53.3656 383.033C54.3085 382.09 55.5836 381.554 56.917 381.541V381.541Z" fill="white" stroke="#263238" stroke-linecap="round" stroke-linejoin="round"/>
<path d="M56.917 381.541H119.998C121.349 381.541 122.644 382.077 123.6 383.033C124.555 383.988 125.092 385.284 125.092 386.635V390.54H51.8739V386.652C51.8693 385.307 52.3971 384.014 53.3419 383.057C54.2867 382.099 55.5719 381.554 56.917 381.541V381.541Z" fill="#263238" stroke="#263238" stroke-linecap="round" stroke-linejoin="round"/>
<path d="M104.835 388.553C106.147 388.553 107.212 387.489 107.212 386.176C107.212 384.863 106.147 383.799 104.835 383.799C103.522 383.799 102.457 384.863 102.457 386.176C102.457 387.489 103.522 388.553 104.835 388.553Z" fill="white" stroke="#263238" stroke-linecap="round" stroke-linejoin="round"/>
<path d="M114.819 386.176C114.819 385.706 114.679 385.247 114.418 384.856C114.157 384.465 113.786 384.16 113.351 383.98C112.917 383.8 112.439 383.753 111.978 383.845C111.517 383.936 111.093 384.163 110.761 384.495C110.428 384.828 110.202 385.251 110.11 385.713C110.018 386.174 110.065 386.652 110.245 387.086C110.425 387.52 110.73 387.892 111.121 388.153C111.512 388.414 111.971 388.553 112.442 388.553C113.072 388.553 113.677 388.303 114.122 387.857C114.568 387.411 114.819 386.807 114.819 386.176V386.176Z" fill="white" stroke="#263238" stroke-linecap="round" stroke-linejoin="round"/>
<path d="M120.049 388.553C121.361 388.553 122.426 387.489 122.426 386.176C122.426 384.863 121.361 383.799 120.049 383.799C118.736 383.799 117.671 384.863 117.671 386.176C117.671 387.489 118.736 388.553 120.049 388.553Z" fill="white" stroke="#263238" stroke-linecap="round" stroke-linejoin="round"/>
<path d="M79.6702 400.626L67.1219 410.543L79.6702 420.459" stroke="#263238" stroke-width="3" stroke-linecap="round" stroke-linejoin="round"/>
<path d="M96.8709 400.626L109.402 410.543L96.8709 420.459" stroke="#263238" stroke-width="3" stroke-linecap="round" stroke-linejoin="round"/>
<path d="M89.8751 398.3L86.0716 422.208" stroke="#263238" stroke-width="3" stroke-linecap="round" stroke-linejoin="round"/>
<path d="M103.663 433.533H117.519" stroke="#263238" stroke-linecap="round" stroke-linejoin="round"/>
<path d="M83.1511 433.533H101.15" stroke="#263238" stroke-linecap="round" stroke-linejoin="round"/>
<path d="M68.0219 433.533H79.1777" stroke="#263238" stroke-linecap="round" stroke-linejoin="round"/>
<path d="M60.262 433.533H65.5088" stroke="#263238" stroke-linecap="round" stroke-linejoin="round"/>
<path d="M109.436 441.718H117.519" stroke="#263238" stroke-linecap="round" stroke-linejoin="round"/>
<path d="M69.1086 441.718H105.463" stroke="#263238" stroke-linecap="round" stroke-linejoin="round"/>
<path d="M60.262 441.718H64.7787" stroke="#263238" stroke-linecap="round" stroke-linejoin="round"/>
<path d="M89.994 449.885H117.519" stroke="#263238" stroke-linecap="round" stroke-linejoin="round"/>
<path d="M66.9352 449.885H84.9509" stroke="#263238" stroke-linecap="round" stroke-linejoin="round"/>
<path d="M60.262 449.885H64.0655" stroke="#263238" stroke-linecap="round" stroke-linejoin="round"/>
<path d="M109.793 458.07H117.519" stroke="#263238" stroke-linecap="round" stroke-linejoin="round"/>
<path d="M83.5076 458.07H105.463" stroke="#263238" stroke-linecap="round" stroke-linejoin="round"/>
<path d="M60.262 458.07H79.1777" stroke="#263238" stroke-linecap="round" stroke-linejoin="round"/>
<path d="M86.598 654.053C72.2172 654.053 58.4251 659.764 48.2547 669.932C38.0843 680.099 32.3684 693.889 32.3639 708.27H140.832C140.828 693.889 135.112 680.099 124.941 669.932C114.771 659.764 100.979 654.053 86.598 654.053V654.053Z" fill="white" stroke="#263238" stroke-linecap="round" stroke-linejoin="round"/>
<path d="M97.3124 697.454L123.954 669.012C116.269 661.7 106.607 656.803 96.1663 654.927C85.7253 653.052 74.9634 654.28 65.2138 658.461C55.4642 662.642 47.1553 669.591 41.3162 678.447C35.4772 687.304 32.3645 697.679 32.3639 708.287H97.1256L97.3124 697.454Z" fill="#FF8538" stroke="#263238" stroke-linecap="round" stroke-linejoin="round"/>
<path d="M86.598 675.804C82.3256 675.804 78.0951 676.646 74.1479 678.281C70.2007 679.916 66.6143 682.312 63.5932 685.333C60.5722 688.354 58.1758 691.941 56.5408 695.888C54.9058 699.835 54.0643 704.066 54.0643 708.338H119.132C119.132 704.066 118.29 699.835 116.655 695.888C115.02 691.941 112.624 688.354 109.603 685.333C106.582 682.312 102.995 679.916 99.0481 678.281C95.1009 676.646 90.8704 675.804 86.598 675.804V675.804Z" stroke="#263238" stroke-linecap="round" stroke-linejoin="round"/>
<path d="M86.598 692.784C82.4909 692.784 78.5521 694.416 75.6479 697.32C72.7438 700.224 71.1122 704.163 71.1122 708.27H102.084C102.084 704.163 100.452 700.224 97.5481 697.32C94.6439 694.416 90.7051 692.784 86.598 692.784Z" fill="#263238" stroke="#263238" stroke-linecap="round" stroke-linejoin="round"/>
<path d="M89.6374 707.217L86.0207 703.617L117.773 673.682L119.573 675.482L89.6374 707.217Z" fill="#263238" stroke="#263238" stroke-linecap="round" stroke-linejoin="round"/>
<path d="M764.813 535.6C760.447 535.6 756.18 536.895 752.549 539.32C748.919 541.746 746.09 545.193 744.419 549.227C742.749 553.26 742.312 557.699 743.163 561.981C744.015 566.262 746.117 570.196 749.204 573.283C752.292 576.37 756.225 578.472 760.507 579.324C764.789 580.176 769.227 579.739 773.261 578.068C777.294 576.397 780.741 573.568 783.167 569.938C785.592 566.308 786.887 562.04 786.887 557.674C786.887 551.82 784.561 546.205 780.422 542.065C776.282 537.926 770.668 535.6 764.813 535.6V535.6ZM764.813 570.986C762.186 570.986 759.618 570.207 757.434 568.747C755.25 567.288 753.548 565.213 752.544 562.786C751.539 560.358 751.277 557.688 751.791 555.111C752.305 552.535 753.571 550.169 755.43 548.313C757.289 546.457 759.656 545.193 762.233 544.683C764.81 544.172 767.48 544.438 769.906 545.445C772.332 546.453 774.405 548.158 775.862 550.343C777.319 552.529 778.095 555.098 778.091 557.725C778.091 559.468 777.748 561.194 777.08 562.804C776.413 564.414 775.435 565.877 774.201 567.108C772.968 568.34 771.504 569.316 769.893 569.982C768.282 570.647 766.556 570.989 764.813 570.986V570.986Z" stroke="#263238" stroke-linecap="round" stroke-linejoin="round"/>
<path d="M777.005 576.165L771.775 569C769.686 570.302 767.274 570.99 764.813 570.987C761.376 570.864 758.12 569.412 755.732 566.937C753.344 564.461 752.01 561.156 752.01 557.717C752.01 554.277 753.344 550.972 755.732 548.497C758.12 546.022 761.376 544.57 764.813 544.447C767.204 544.432 769.553 545.072 771.605 546.298L776.224 538.759C772.837 536.733 768.969 535.653 765.023 535.63C761.077 535.607 757.197 536.642 753.787 538.628C750.377 540.614 747.562 543.477 745.634 546.92C743.706 550.363 742.737 554.26 742.827 558.205C742.916 562.15 744.062 565.999 746.144 569.351C748.226 572.703 751.169 575.436 754.665 577.264C758.162 579.093 762.085 579.951 766.026 579.749C769.967 579.546 773.781 578.291 777.073 576.115L777.005 576.165Z" fill="#FF8538" stroke="#263238" stroke-linecap="round" stroke-linejoin="round"/>
<path d="M764.813 595.998C760.447 595.998 756.18 597.293 752.549 599.718C748.919 602.144 746.09 605.591 744.419 609.625C742.749 613.658 742.312 618.097 743.163 622.378C744.015 626.66 746.117 630.594 749.204 633.681C752.292 636.768 756.225 638.87 760.507 639.722C764.789 640.574 769.227 640.136 773.261 638.466C777.294 636.795 780.741 633.966 783.167 630.336C785.592 626.706 786.887 622.438 786.887 618.072C786.887 612.218 784.561 606.603 780.422 602.463C776.282 598.324 770.668 595.998 764.813 595.998V595.998ZM764.813 631.367C762.191 631.364 759.629 630.583 757.45 629.124C755.272 627.665 753.574 625.593 752.573 623.169C751.572 620.746 751.312 618.08 751.826 615.508C752.339 612.937 753.604 610.576 755.459 608.723C757.314 606.87 759.677 605.609 762.249 605.098C764.821 604.588 767.487 604.851 769.909 605.856C772.331 606.86 774.401 608.56 775.858 610.74C777.314 612.921 778.091 615.484 778.091 618.106C778.098 619.853 777.76 621.585 777.095 623.201C776.431 624.816 775.453 626.285 774.219 627.522C772.986 628.759 771.519 629.74 769.905 630.409C768.291 631.078 766.56 631.421 764.813 631.418V631.367Z" stroke="#263238" stroke-linecap="round" stroke-linejoin="round"/>
<path d="M778.092 618.157C778.091 620.49 777.474 622.782 776.304 624.801C775.134 626.819 773.452 628.494 771.429 629.655C769.405 630.816 767.11 631.422 764.777 631.413C762.444 631.403 760.155 630.779 758.14 629.602L754.421 637.667C757.788 639.471 761.566 640.371 765.385 640.278C769.204 640.185 772.933 639.102 776.209 637.136C779.484 635.17 782.193 632.387 784.07 629.061C785.948 625.734 786.93 621.977 786.921 618.157C786.919 616.83 786.794 615.505 786.548 614.201L777.684 614.676C777.97 615.814 778.107 616.984 778.092 618.157Z" fill="#FF8538" stroke="#263238" stroke-linecap="round" stroke-linejoin="round"/>
<path d="M747.12 669.267H739.19V689.965H747.12V669.267Z" fill="#263238" stroke="#263238" stroke-linecap="round" stroke-linejoin="round"/>
<path d="M762.402 670.71H754.472V689.948H762.402V670.71Z" fill="#FF8538" stroke="#263238" stroke-linecap="round" stroke-linejoin="round"/>
<path d="M777.684 661.15H769.754V689.948H777.684V661.15Z" fill="#263238" stroke="#263238" stroke-linecap="round" stroke-linejoin="round"/>
<path d="M792.966 650.725H785.036V689.948H792.966V650.725Z" fill="#FF8538" stroke="#263238" stroke-linecap="round" stroke-linejoin="round"/>
<path d="M760.551 286.113V282.208H743.724V286.113V288.745V309.613H779.144V286.113H760.551Z" fill="white" stroke="#263238" stroke-linecap="round" stroke-linejoin="round"/>
<path d="M804.36 286.113V282.208H787.532V286.113V288.745V309.613H822.97V286.113H804.36Z" fill="white" stroke="#263238" stroke-linecap="round" stroke-linejoin="round"/>
<path d="M760.551 325.269V321.346H743.724V325.269V327.901V348.769H779.144V325.269H760.551Z" fill="white" stroke="#263238" stroke-linecap="round" stroke-linejoin="round"/>
<path d="M804.36 325.269V321.346H787.532V325.269V327.901V348.769H822.97V325.269H804.36Z" fill="white" stroke="#263238" stroke-linecap="round" stroke-linejoin="round"/>
<path d="M760.551 364.425V360.502H743.724V364.425V367.056V387.925H779.144V364.425H760.551Z" fill="white" stroke="#263238" stroke-linecap="round" stroke-linejoin="round"/>
<path d="M804.36 364.425V360.502H787.532V364.425V367.056V387.925H822.97V364.425H804.36Z" fill="#FF8538" stroke="#263238" stroke-linecap="round" stroke-linejoin="round"/>
<path d="M760.551 403.581V399.658H743.724V403.581V406.212V427.081H779.144V403.581H760.551Z" fill="white" stroke="#263238" stroke-linecap="round" stroke-linejoin="round"/>
<path d="M804.36 403.581V399.658H787.532V403.581V406.212V427.081H822.97V403.581H804.36Z" fill="white" stroke="#263238" stroke-linecap="round" stroke-linejoin="round"/>
<path d="M760.551 442.736V438.814H743.724V442.736V445.368V466.22H779.144V442.736H760.551Z" fill="white" stroke="#263238" stroke-linecap="round" stroke-linejoin="round"/>
<path d="M804.36 442.736V438.814H787.532V442.736V445.368V466.22H822.97V442.736H804.36Z" fill="white" stroke="#263238" stroke-linecap="round" stroke-linejoin="round"/>
<path d="M550.492 148.711L554.414 160.801H567.115L556.842 168.255L560.764 180.345L550.492 172.873L540.219 180.345L544.141 168.255L533.868 160.801H546.569L550.492 148.711Z" fill="#FF8538" stroke="#263238" stroke-linecap="round" stroke-linejoin="round"/>
<path d="M592.415 148.711L596.338 160.801H609.039L598.766 168.255L602.688 180.345L592.415 172.873L582.142 180.345L586.065 168.255L575.792 160.801H588.493L592.415 148.711Z" fill="#FF8538" stroke="#263238" stroke-linecap="round" stroke-linejoin="round"/>
<path d="M634.339 148.711L638.261 160.801H650.962L640.689 168.255L644.612 180.345L634.339 172.873L624.066 180.345L627.988 168.255L617.715 160.801H630.416L634.339 148.711Z" fill="#FF8538" stroke="#263238" stroke-linecap="round" stroke-linejoin="round"/>
<path d="M676.262 148.711L680.185 160.801H692.886L682.613 168.255L686.535 180.345L676.262 172.873L665.973 180.345L669.912 168.255L659.639 160.801H672.323L676.262 148.711Z" fill="#FF8538" stroke="#263238" stroke-linecap="round" stroke-linejoin="round"/>
<path d="M718.169 148.711L722.108 160.801H734.809L724.52 168.255L728.459 180.345L718.169 172.873L707.896 180.345L711.819 168.255L701.546 160.801H714.247L718.169 148.711Z" fill="#FF8538" stroke="#263238" stroke-linecap="round" stroke-linejoin="round"/>
<path d="M427.047 750.516C581.312 750.516 706.368 746.335 706.368 741.177C706.368 736.019 581.312 731.838 427.047 731.838C272.782 731.838 147.726 736.019 147.726 741.177C147.726 746.335 272.782 750.516 427.047 750.516Z" fill="#263238" stroke="#263238" stroke-linecap="round" stroke-linejoin="round"/>
<path d="M697.878 219.042H155.792C147.839 219.042 141.392 225.489 141.392 233.441V632.811C141.392 640.763 147.839 647.21 155.792 647.21H697.878C705.83 647.21 712.277 640.763 712.277 632.811V233.441C712.277 225.489 705.83 219.042 697.878 219.042Z" fill="#263238" stroke="#263238" stroke-linecap="round" stroke-linejoin="round"/>
<path d="M497.854 680.219V631.996H355.799V680.219C355.799 695.96 350.486 711.24 340.721 723.586L334.506 731.43H519.163L512.932 723.586C503.167 711.24 497.854 695.96 497.854 680.219Z" fill="white" stroke="#263238" stroke-linecap="round" stroke-linejoin="round"/>
<path d="M497.837 631.996H355.799V670.71H497.837V631.996Z" fill="#263238" stroke="#263238" stroke-linecap="round" stroke-linejoin="round"/>
<path d="M519.197 731.43H334.506V740.039H519.197V731.43Z" fill="white" stroke="#263238" stroke-linecap="round" stroke-linejoin="round"/>
<path d="M141.392 580.716H712.277V632.862C712.277 636.68 710.76 640.343 708.06 643.043C705.359 645.744 701.697 647.261 697.878 647.261H155.792C151.973 647.261 148.31 645.744 145.61 643.043C142.909 640.343 141.392 636.68 141.392 632.862V580.716Z" fill="white" stroke="#263238" stroke-linecap="round" stroke-linejoin="round"/>
<path d="M683.564 245.684H170.106V548.182H683.564V245.684Z" fill="#FF8538" stroke="#263238" stroke-linecap="round" stroke-linejoin="round"/>
<g opacity="0.2">
<path d="M261.832 346.698C261.832 346.698 258.962 351.792 255.04 348.633C251.117 345.475 241.456 338.921 235.377 341.179C229.298 343.437 227.141 350.909 230.011 353.167C232.881 355.425 233.577 358.023 228.924 361.266C224.272 364.51 226.428 368.721 230.368 369.756C234.307 370.792 237.16 369.111 236.803 371.454C236.447 373.798 236.803 375.003 230.724 377.601C224.645 380.199 225.002 382.457 232.864 380.199C240.725 377.941 241.812 372.745 245.378 369.179C248.944 365.613 264.345 372.745 268.641 380.199C272.937 387.653 272.58 395.091 272.58 400.932C272.58 406.773 280.798 407.401 282.581 412.597C284.364 417.793 287.675 422.632 288.303 421.342C288.932 420.051 287.947 418.421 287.947 416.808C287.947 415.195 293.313 420.357 294.043 423.923C294.773 427.488 300.835 431.699 304.044 431.699C307.638 431.718 311.139 432.851 314.062 434.943C316.219 436.878 321.228 441.429 323.011 441.429C324.793 441.429 324.793 440.444 325.88 441.429C326.967 442.414 326.95 445.317 326.237 448.221C325.524 451.125 322.654 452.109 326.593 457.95C330.533 463.792 336.204 466.559 336.204 472.044C336.204 477.528 330.125 497.633 330.125 503.474C330.125 509.315 335.847 516.107 338.004 515.462C340.16 514.817 338.36 511.573 338.36 508.67C338.36 505.766 341.943 503.491 341.943 500.893C341.943 498.295 344.439 495.391 346.579 493.439C348.718 491.486 352.301 490.212 354.457 486.969C356.614 483.726 360.18 480.806 361.606 478.479C363.152 476.127 364.824 473.859 366.615 471.687C369.841 467.476 369.841 464.233 371.709 461.313C373.577 458.392 373.866 452.568 369.57 451.277C365.274 449.987 359.195 448.034 357.684 446.098C356.172 444.163 348.396 440.903 346.952 440.58C345.509 440.257 343.387 437.676 340.517 437.354C338.619 437.112 336.707 437.005 334.795 437.031C332.617 437.282 330.465 437.713 328.359 438.322H323.707L319.767 435.724C319.767 435.724 321.211 431.513 318.341 430.867C316.934 430.511 315.495 430.295 314.045 430.222C314.045 430.222 316.202 426.334 314.045 426.011C311.889 425.688 307.966 428.269 306.897 428.269C305.827 428.269 302.244 422.768 304.027 420.17C305.81 417.572 307.253 415.314 310.819 414.668C314.385 414.023 317.611 411.425 319.75 414.668C321.89 417.912 326.916 423.736 326.916 420.17C326.916 416.604 324.403 414.668 324.759 412.41C325.116 410.152 329.769 411.103 329.769 406.569C329.769 402.035 331.568 399.437 333.708 398.47C335.847 397.502 341.943 398.147 341.57 393.613C341.196 389.08 338.36 393.291 336.204 391.661C334.048 390.03 338.36 386.159 342.656 386.159C346.952 386.159 350.518 385.191 349.448 381.948C348.379 378.705 343.726 376.769 341.57 372.558C339.413 368.347 337.291 372.881 334.778 370.605C332.265 368.33 327.986 365.511 327.629 369.637C327.273 373.764 329.769 379.027 328.699 381.625C327.629 384.223 322.62 386.804 321.194 383.901C319.767 380.997 321.194 379.69 317.254 377.414C313.315 375.139 309.019 373.203 308.662 368.924C308.306 364.645 311.175 361.793 314.741 359.212C318.307 356.631 322.977 354.339 322.62 350.127C322.263 345.916 319.394 344.303 318.681 347.547C318.533 348.205 318.183 348.801 317.679 349.25C317.176 349.699 316.544 349.979 315.873 350.051C315.202 350.122 314.525 349.981 313.938 349.647C313.352 349.314 312.884 348.805 312.602 348.192C311.175 345.594 307.949 344.303 307.949 346.579C307.949 348.854 307.236 351.112 304.366 351.112C301.497 351.112 297.218 348.837 295.435 349.16C293.652 349.482 292.922 351.112 290.782 351.112C288.643 351.112 285.06 351.758 284.347 349.414C283.634 347.071 278.981 346.511 275.755 345.849C272.825 345.149 269.818 344.824 266.807 344.881C265.251 345.737 263.573 346.35 261.832 346.698Z" fill="black"/>
<path d="M336.951 427.353C336.951 427.353 335.151 427.353 329.429 424.772C323.707 422.191 319.054 423.074 321.924 424.432C324.793 425.79 330.142 427.675 330.142 427.675C330.142 427.675 324.063 427.353 329.429 428.983C334.795 430.613 341.96 429.305 336.951 427.353Z" fill="black"/>
<path d="M407.418 410.508C406.704 412.976 405.742 415.365 404.549 417.64C403.479 418.931 399.183 420.883 398.113 424.432C397.214 428.554 397.983 432.864 400.253 436.42C402.409 439.663 404.192 439.986 409.201 441.293C414.21 442.601 421.715 441.293 424.585 441.616C427.455 441.938 423.515 447.117 423.515 448.73C423.515 450.344 430.664 453.604 431.02 456.507C431.377 459.411 428.168 465.592 431.02 469.463C433.873 473.334 434.96 475.949 434.96 478.225C434.96 480.5 433.89 484.049 441.039 485.017C448.187 485.985 453.196 483.081 454.283 478.87C455.37 474.659 455.353 470.38 458.562 468.818C460.148 467.959 461.42 466.617 462.193 464.987C462.965 463.356 463.198 461.522 462.858 459.75C462.145 456.185 461.431 451.006 464.284 449.053C467.137 447.1 472.876 443.552 473.233 439.986C473.589 436.42 470.38 439.663 465.727 436.42C461.075 433.177 456.066 423.464 454.996 420.883C453.926 418.302 453.926 416.01 457.849 420.883C461.771 425.756 462.858 435.452 468.937 435.452C475.016 435.452 483.607 428.66 483.964 425.417C484.321 422.174 480.398 424.109 476.102 421.206C471.806 418.302 468.937 411.154 474.302 413.106C479.668 415.059 486.834 421.596 489.686 421.596C492.539 421.596 501.131 418.676 501.487 423.855C501.844 429.034 499.789 437.439 504.714 437.795C509.638 438.152 508.296 432.599 509.723 430.664C511.149 428.728 519.028 422.887 520.811 424.177C522.593 425.468 521.524 430.664 526.176 430.969C530.829 431.275 532.612 432.26 531.185 433.89C529.759 435.52 529.402 441.005 531.185 440.359C532.968 439.714 530.829 434.213 534.055 435.826C537.281 437.439 542.273 434.213 542.273 432.582C542.273 430.952 536.194 429.034 537.977 426.113C539.76 423.193 545.5 422.547 549.422 422.225C553.344 421.902 556.944 416.384 555.161 413.157C553.378 409.931 551.935 407.639 554.074 406.994C556.214 406.348 552.648 404.413 552.648 403.428C552.648 402.443 555.874 399.862 558.014 401.815C560.153 403.767 559.084 406.348 560.883 408.301C562.683 410.254 564.806 409.914 564.806 407.316C564.665 405.023 564.307 402.749 563.736 400.524C563.736 400.524 566.962 397.926 568.745 398.249C570.528 398.572 575.537 392.747 576.98 388.536C578.424 384.325 577.337 381.744 575.181 381.744C573.024 381.744 569.458 377.211 573.398 374.613C577.337 372.015 583.416 370.079 586.268 371.047C589.121 372.015 591.362 370.724 593.06 368.143C594.758 365.562 599.139 365.545 601.279 365.545C603.418 365.545 605.575 360.689 605.931 363.287C606.288 365.885 598.426 371.387 596.983 374.935C595.54 378.484 594.13 384.02 597.339 384.342C600.549 384.665 601.992 379.146 602.705 376.565C603.418 373.984 603.792 369.434 605.931 369.111C608.071 368.789 609.158 370.079 612.367 367.821C615.576 365.562 619.889 365.223 620.602 361.98C621.315 358.736 622.742 351.622 618.802 348.056C614.863 344.49 612.367 346.766 608.071 348.056C603.775 349.347 598.783 341.892 598.783 341.892C596.057 341.48 593.304 341.265 590.547 341.247C586.252 341.247 584.469 336.713 581.599 336.391C578.729 336.068 579.103 340.279 576.233 341.247C573.364 342.215 572.667 341.57 570.511 341.57C568.355 341.57 566.232 342.215 565.502 340.279C564.772 338.343 563.006 335.1 560.51 334.778C558.014 334.455 555.144 335.746 553.718 335.746C552.292 335.746 547.282 334.048 545.856 334.048C544.43 334.048 539.064 335.032 539.064 335.032C539.064 335.032 546.926 324.98 545.5 322.399C544.073 319.818 538.334 319.156 535.125 320.124C531.915 321.092 528.689 320.769 526.533 322.077C524.376 323.384 518.315 324.335 516.515 326.933C514.715 329.531 515.088 330.499 512.592 332.112C510.096 333.725 510.079 336.323 510.436 338.904C510.792 341.485 507.227 335.983 504.714 337.596C502.2 339.209 500.774 340.194 501.487 342.453C502.2 344.711 505.07 347.326 504.357 349.584C503.644 351.843 498.278 353.795 498.278 350.552C498.278 347.309 501.131 334.693 497.208 335.015C493.286 335.338 492.199 339.872 493.269 343.115C494.339 346.358 495.052 347.649 492.912 347.649C490.773 347.649 487.818 343.437 485.764 345.696C483.709 347.954 477.529 348.294 474.659 348.616C471.789 348.939 467.51 353.15 465.371 354.763C463.231 356.376 462.501 358.991 458.579 359.314C454.657 359.636 452.143 352.522 453.943 352.522C455.743 352.522 462.162 355.765 462.162 351.877C462.162 347.988 452.143 344.1 447.134 343.387C442.125 342.673 434.264 344.677 432.837 348.888C431.411 353.099 432.107 359.263 427.472 363.474C422.836 367.685 419.949 372.541 423.532 372.541C427.115 372.541 429.254 367.685 429.611 371.573C429.625 372.239 429.852 372.883 430.26 373.41C430.667 373.937 431.233 374.319 431.875 374.5C432.516 374.68 433.198 374.65 433.821 374.414C434.443 374.177 434.974 373.747 435.333 373.186C436.403 371.251 436.403 367.362 436.403 363.796C436.403 360.231 442.838 353.744 443.925 356.665C445.012 359.585 440.342 364.119 440.342 367.023C440.342 369.926 445.708 367.685 448.578 367.685C451.447 367.685 453.57 369.621 448.934 370.266C444.299 370.911 443.925 370.911 442.838 373.832C441.752 376.752 443.212 378.688 438.916 379.673C434.62 380.658 424.245 379.011 422.106 382.576C419.966 386.142 418.88 388.095 416.74 388.74C414.601 389.385 410.288 389.063 411.001 391.983C411.714 394.904 413.871 393.274 412.801 396.194C411.731 399.115 408.148 394.496 406.722 396.84C405.296 399.183 408.861 409.473 412.088 406.552C414.231 404.421 415.933 401.888 417.097 399.098C417.097 399.098 420.306 398.775 421.019 397.4C421.732 396.025 426.385 393.189 427.811 397.4C429.237 401.611 431.377 400.643 431.377 402.579C431.377 404.515 427.811 406.79 431.02 405.499C434.23 404.209 436.114 404.531 434.96 400.643C433.805 396.755 429.866 392.153 432.09 393.189C434.586 394.748 436.579 396.994 437.829 399.658C438.899 401.934 444.265 408.42 444.978 405.822C445.691 403.224 444.265 398.69 445.334 398.69C446.404 398.69 448.561 396.109 449.274 393.596C449.987 391.083 458.918 393.919 460.718 396.194C462.518 398.47 458.918 400.728 455.064 400.728C451.21 400.728 446.116 403.309 449.342 405.584C452.568 407.86 457.56 402.986 458.273 406.552C458.986 410.118 457.203 413.344 454.351 413.344C451.498 413.344 447.898 412.037 445.402 412.037C442.906 412.037 442.533 415.28 437.897 414.312C433.262 413.344 432.158 409.456 428.592 407.18C425.026 404.905 421.8 406.535 418.931 407.503C416.061 408.471 409.218 407.911 407.418 410.508Z" fill="black"/>
<path d="M495.052 318.833C493.975 321.11 492.382 323.105 490.399 324.657C487.547 326.61 480.025 332.757 480.025 336.323C480.025 339.889 483.251 343.115 478.242 341.824C473.233 340.534 479.311 327.578 482.894 324.335C486.477 321.092 486.477 322.722 489.33 321.092C492.182 319.462 494.695 316.235 495.052 318.833Z" fill="black"/>
<path d="M549.065 442.906C549.065 442.906 544.786 442.906 543.343 446.149C541.9 449.393 547.639 452.296 549.422 450.038C551.205 447.78 550.509 444.842 551.222 443.246C551.935 441.65 551.222 440.954 549.065 442.906Z" fill="black"/>
<path d="M536.568 449.053C536.568 449.053 534.072 437.167 532.985 440.563C532.329 442.565 532.329 444.725 532.985 446.727C532.985 446.727 523.341 439.595 524.41 443.806C525.48 448.017 532.985 450.598 536.568 453.213C540.151 455.828 540.507 455.472 545.516 457.085C550.526 458.698 553.735 456.117 549.812 455.387C545.89 454.657 539.438 451.498 537.926 450.853C537.563 450.697 537.247 450.449 537.009 450.133C536.77 449.818 536.618 449.445 536.568 449.053Z" fill="black"/>
<path d="M579.12 450.683C579.12 450.683 563.023 445.182 564.806 448.408C566.589 451.634 572.328 450.683 573.398 452.296C574.467 453.909 575.18 457.153 577.694 457.153C580.207 457.153 582.346 456.185 583.772 457.815C585.199 459.445 588.425 461.703 589.495 460.073C590.564 458.443 588.068 456.507 586.268 454.249C584.469 451.991 579.12 450.683 579.12 450.683Z" fill="black"/>
<path d="M579.12 460.718C579.12 460.718 578.763 465.591 575.18 465.252C571.598 464.912 574.467 460.073 569.815 460.718C565.162 461.363 565.892 464.607 563.379 464.607C560.866 464.607 556.587 465.914 556.231 467.204C555.874 468.495 553.005 469.802 550.865 469.802C548.726 469.802 546.569 474.013 547.282 476.272C547.996 478.53 549.422 481.451 549.422 483.726C549.422 486.001 549.422 487.937 553.361 486.969C557.301 486.001 563.379 481.451 568.032 483.081C572.684 484.711 576.624 490.212 579.476 491.825C582.329 493.439 584.129 495.069 586.625 490.858C589.121 486.647 592.721 482.368 592.721 477.274C592.721 472.18 588.782 471.772 585.555 466.916C582.329 462.06 580.19 458.137 579.12 460.718Z" fill="black"/>
<path d="M613.827 495.069C613.827 495.069 614.897 495.714 611.314 497.327C607.731 498.94 607.018 501.216 609.616 502.523C612.214 503.831 615.338 498.957 616.408 497.327C617.478 495.697 618.463 491.826 613.827 495.069Z" fill="black"/>
<path d="M472.519 462.348C472.519 462.348 470.821 462.026 468.223 464.284C465.626 466.542 467.867 467.85 467.154 470.77C466.441 473.691 467.154 476.917 470.023 474.981C472.893 473.046 475.746 466.237 475.746 463.639C475.746 461.041 475.015 458.782 472.519 462.348Z" fill="black"/>
<path d="M444.265 303.28C444.265 303.28 444.621 304.57 439.969 303.602C435.316 302.634 433.89 305.215 432.82 305.538C431.75 305.861 426.368 302.634 426.724 306.523C427.081 310.411 431.733 315.59 433.516 312.67C435.299 309.749 433.873 312.67 431.717 315.59C429.56 318.511 434.23 322.382 436.369 319.801C438.508 317.22 438.526 308.459 439.595 311.311C440.665 314.164 442.448 319.411 444.689 317.135C446.931 314.86 441.106 308.645 441.106 306.778C441.106 304.91 442.176 308.068 445.046 306.132C447.915 304.197 447.474 302.957 444.265 303.28Z" fill="black"/>
<path d="M536.908 311.379C536.908 311.379 538.334 306.845 534.768 307.168C531.202 307.491 527.246 310.089 530.472 312.262C533.698 314.435 536.908 311.379 536.908 311.379Z" fill="black"/>
<path d="M530.472 302.635C529.759 301.327 526.889 292.26 524.75 294.858C522.61 297.456 525.82 304.248 525.82 304.248C525.82 304.248 524.393 306.846 527.603 307.168C530.812 307.491 530.472 302.635 530.472 302.635Z" fill="black"/>
<path d="M361.674 290.001C359.976 290.307 352.743 285.468 348.803 288.694C344.864 291.92 344.507 293.89 342.368 298.423C340.228 302.957 342.368 305.878 341.638 306.913C340.907 307.949 342.011 306.268 337.715 308.849C333.419 311.43 332.621 310.547 335.202 314.045C337.783 317.543 334.132 317.594 338.072 320.837C342.011 324.08 343.437 318.256 347.733 322.144C352.029 326.033 349.873 330.889 352.827 340.602C355.782 350.314 357.106 365.868 359.263 368.466C361.419 371.064 364.985 371.709 366.768 367.498C368.551 363.287 371.862 355.833 377.143 353.235C382.424 350.637 390.031 347.411 390.031 343.845C390.031 340.279 387.161 338.666 388.231 336.068C389.3 333.47 391.814 335.423 391.814 331.212V322.467C391.814 318.901 391.1 310.479 391.814 309.494C393.158 307.601 394.238 305.533 395.023 303.348C395.023 302.38 397.536 299.459 398.249 298.491C399.039 297.214 399.526 295.774 399.675 294.28C399.675 293.295 401.475 291.037 398.249 292.328C395.023 293.618 395.023 296.539 392.527 298.169C390.031 299.799 386.804 300.75 386.804 297.523C386.804 294.297 390.387 290.392 386.804 290.069C384.265 289.951 381.725 290.278 379.299 291.037C379.299 291.037 382.865 289.339 383.935 288.762C385.005 288.184 388.587 287.794 389.657 286.826C390.426 285.897 390.925 284.776 391.1 283.583C390.221 282.657 389.105 281.987 387.874 281.647C385.735 280.985 385.735 278.727 383.578 278.081C380.775 277.556 377.938 277.233 375.088 277.114C375.088 277.114 368.296 279.049 366.853 279.694C365.427 280.34 364.038 281.066 362.693 281.868C362.693 281.868 361.623 285.094 362.693 286.402C363.763 287.709 365.206 289.356 361.674 290.001Z" fill="black"/>
<path d="M339.091 292.582C339.091 292.582 337.393 296.148 336.221 298.423C334.988 300.906 333.557 303.285 331.942 305.538C330.142 308.136 329.072 309.426 329.072 310.411C329.072 311.396 330.77 313.315 328.003 315.59C325.864 317.187 323.592 318.596 321.211 319.801C320.944 320.58 320.38 321.221 319.641 321.584C318.903 321.946 318.05 322.002 317.271 321.737C314.402 320.769 316.202 315.913 317.271 314.3C318.341 312.687 317.271 308.136 315.132 309.104C312.992 310.072 311.549 312.024 309.393 309.426C307.236 306.828 306.54 301.667 306.54 299.069C306.54 296.471 306.54 292.905 308.679 294.212C310.819 295.52 317.628 299.306 318.698 298.746C319.767 298.186 317.271 295.503 315.845 293.567C314.419 291.631 311.192 289.356 315.132 287.403C319.071 285.451 323.35 285.128 326.22 283.515C329.089 281.902 330.855 280.594 334.438 281.579C338.021 282.564 341.23 281.579 342.317 284.16C342.986 285.925 343.348 287.792 343.387 289.679L339.091 292.582Z" fill="black"/>
<path d="M318.698 324.658C317.21 324.144 315.772 323.496 314.402 322.722C310.479 320.769 308.323 313.638 307.253 317.849C306.183 322.06 311.549 326.933 314.045 328.223C316.541 329.514 326.933 329.514 325.49 325.948C324.046 322.382 318.698 324.658 318.698 324.658Z" fill="black"/>
<path d="M333.012 339.6C329.736 338.475 326.611 336.952 323.707 335.066C321.211 333.113 316.915 329.87 315.217 332.468C313.519 335.066 314.487 342.843 317.356 344.456C320.226 346.069 324.505 342.503 327.018 345.747C329.531 348.99 332.74 352.233 332.112 354.491C331.484 356.75 329.955 358.702 332.825 361.946C335.695 365.189 339.617 365.511 339.617 361.3C339.617 357.089 336.034 354.508 338.904 354.169C341.773 353.829 344.626 357.089 343.2 352.556C342.197 349.672 340.614 347.025 338.547 344.779C336.859 342.892 335.006 341.159 333.012 339.6V339.6Z" fill="black"/>
<path d="M300.105 345.067C299.023 344.715 298.086 344.018 297.439 343.083C296.792 342.147 296.47 341.025 296.522 339.889C296.522 335.678 292.939 330.499 291.869 333.402C290.799 336.306 288.286 337.291 285.434 335.1C282.581 332.91 279.712 327.969 276.842 330.227C273.972 332.485 265.397 337.359 272.563 339.634C279.729 341.909 282.208 337.359 282.921 338.326C283.634 339.294 282.208 338.989 282.921 342.877C283.634 346.765 287.573 348.701 290.799 348.701C294.026 348.701 294.739 345.458 296.165 346.765C297.591 348.073 301.531 349.601 300.105 345.067Z" fill="black"/>
</g>
<path d="M437.354 613.929C437.354 611.847 436.736 609.811 435.58 608.08C434.423 606.349 432.779 605 430.855 604.203C428.931 603.406 426.815 603.197 424.772 603.604C422.73 604.01 420.854 605.013 419.382 606.485C417.91 607.957 416.907 609.833 416.501 611.875C416.095 613.917 416.303 616.034 417.1 617.958C417.897 619.881 419.246 621.526 420.977 622.682C422.709 623.839 424.744 624.457 426.826 624.457C429.618 624.457 432.296 623.347 434.27 621.373C436.245 619.399 437.354 616.721 437.354 613.929V613.929Z" fill="#263238" stroke="#263238" stroke-linecap="round" stroke-linejoin="round"/>
<path d="M652.677 287.981H205.288C203.601 287.983 201.93 287.653 200.371 287.009C198.811 286.365 197.394 285.419 196.2 284.227C195.006 283.035 194.059 281.619 193.413 280.06C192.767 278.502 192.434 276.831 192.434 275.144V275.144C192.439 271.738 193.795 268.473 196.205 266.066C198.615 263.659 201.882 262.307 205.288 262.307H652.677C656.08 262.312 659.343 263.666 661.749 266.072C664.156 268.478 665.51 271.741 665.514 275.144V275.144C665.514 278.549 664.162 281.814 661.754 284.221C659.347 286.628 656.082 287.981 652.677 287.981V287.981Z" fill="white" stroke="#263238" stroke-linecap="round" stroke-linejoin="round"/>
<path d="M652.677 287.981H630.349V262.307H652.677C656.08 262.312 659.343 263.666 661.749 266.072C664.156 268.478 665.51 271.741 665.514 275.144V275.144C665.514 278.549 664.162 281.814 661.754 284.221C659.347 286.628 656.082 287.981 652.677 287.981V287.981Z" fill="#263238" stroke="#263238" stroke-linecap="round" stroke-linejoin="round"/>
<path d="M647.702 265.567C646.638 264.572 645.303 263.915 643.865 263.678C642.428 263.442 640.952 263.636 639.625 264.238C638.298 264.84 637.18 265.821 636.41 267.059C635.641 268.296 635.256 269.733 635.303 271.19C635.351 272.646 635.829 274.055 636.677 275.24C637.525 276.424 638.705 277.331 640.068 277.845C641.432 278.359 642.917 278.458 644.336 278.128C645.755 277.798 647.045 277.055 648.042 275.993C648.707 275.288 649.226 274.458 649.569 273.551C649.912 272.644 650.073 271.679 650.041 270.71C650.009 269.741 649.787 268.787 649.385 267.905C648.984 267.022 648.412 266.228 647.702 265.567ZM646.938 275.076C646.137 275.932 645.1 276.531 643.958 276.798C642.817 277.064 641.621 276.986 640.524 276.573C639.427 276.16 638.477 275.431 637.794 274.478C637.111 273.525 636.727 272.391 636.689 271.219C636.651 270.047 636.961 268.89 637.58 267.895C638.2 266.9 639.101 266.111 640.169 265.627C641.237 265.144 642.425 264.989 643.581 265.18C644.738 265.372 645.811 265.903 646.666 266.705C647.808 267.782 648.477 269.266 648.527 270.835C648.578 272.403 648.007 273.928 646.938 275.076V275.076Z" fill="white"/>
<path d="M653.238 278.659C653.072 278.522 652.873 278.432 652.661 278.399C652.448 278.366 652.231 278.391 652.032 278.472L649.366 275.976C649.23 275.843 649.047 275.769 648.857 275.769C648.667 275.769 648.484 275.843 648.347 275.976L648.11 276.231C648.042 276.295 647.989 276.373 647.952 276.459C647.916 276.545 647.897 276.638 647.897 276.731C647.897 276.825 647.916 276.918 647.952 277.004C647.989 277.09 648.042 277.167 648.11 277.232L650.742 279.711C650.661 279.937 650.649 280.181 650.707 280.414C650.764 280.646 650.888 280.856 651.064 281.019L655.581 285.451C655.88 285.745 656.282 285.91 656.702 285.91C657.121 285.91 657.524 285.745 657.822 285.451V285.451C657.971 285.302 658.088 285.126 658.169 284.933C658.249 284.739 658.29 284.531 658.29 284.322C658.29 284.112 658.249 283.904 658.169 283.71C658.088 283.517 657.971 283.341 657.822 283.192L653.238 278.659Z" fill="white"/>
<path d="M662.916 534.683C658.583 534.694 654.376 533.221 650.996 530.509C647.616 527.796 645.267 524.008 644.34 519.775L640.333 501.216C639.242 496.223 636.472 491.756 632.486 488.558C628.5 485.36 623.539 483.624 618.429 483.641V483.641C613.599 483.628 608.894 485.18 605.019 488.063C601.144 490.946 598.307 495.006 596.932 499.636L594.215 508.84C593.186 512.279 591.099 515.307 588.251 517.493C585.404 519.679 581.94 520.912 578.351 521.017C574.762 521.123 571.232 520.095 568.261 518.079C565.29 516.064 563.029 513.164 561.8 509.791L552.835 484.949C550.475 478.501 546.417 472.81 541.09 468.477C535.762 464.144 529.364 461.331 522.57 460.335C515.776 459.338 508.839 460.195 502.492 462.815C496.145 465.435 490.624 469.721 486.511 475.219L469.378 498.193C467.68 500.468 465.473 502.314 462.935 503.584C460.397 504.855 457.597 505.515 454.758 505.512V505.512C452.379 505.52 450.021 505.061 447.82 504.158C445.618 503.256 443.616 501.929 441.927 500.253C440.239 498.577 438.897 496.585 437.978 494.39C437.059 492.195 436.582 489.841 436.573 487.462V471.178H416.01V487.462C415.971 491.271 414.739 494.973 412.487 498.046C410.235 501.119 407.077 503.408 403.456 504.593C399.835 505.777 395.934 505.797 392.301 504.649C388.669 503.501 385.487 501.243 383.205 498.193L366.072 475.219C361.959 469.721 356.438 465.435 350.091 462.815C343.743 460.195 336.807 459.338 330.013 460.335C323.219 461.331 316.82 464.144 311.493 468.477C306.166 472.81 302.108 478.501 299.748 484.949L290.782 509.791C289.549 513.161 287.286 516.059 284.314 518.072C281.342 520.085 277.812 521.111 274.224 521.006C270.636 520.901 267.172 519.669 264.323 517.486C261.474 515.302 259.385 512.277 258.351 508.84L255.651 499.636C254.219 494.884 251.254 490.741 247.217 487.853C243.18 484.966 238.301 483.498 233.341 483.678C228.381 483.859 223.621 485.678 219.805 488.851C215.989 492.024 213.332 496.372 212.25 501.216L208.243 519.775C207.313 524.007 204.963 527.793 201.584 530.505C198.205 533.217 193.999 534.691 189.667 534.683H170.14V548.182H682.443V534.683H662.916Z" fill="white" stroke="#263238" stroke-linecap="round" stroke-linejoin="round"/>
<path d="M429.186 88.0412C446.152 88.1456 462.706 93.2786 476.755 102.791C490.803 112.304 501.716 125.768 508.112 141.482C514.508 157.197 516.101 174.455 512.689 191.074C509.277 207.694 501.013 222.928 488.943 234.851C476.873 246.774 461.538 254.85 444.878 258.058C428.218 261.266 410.98 259.462 395.346 252.873C379.711 246.284 366.381 235.208 357.042 221.043C347.703 206.879 342.773 190.264 342.877 173.298C342.946 162.033 345.233 150.891 349.608 140.51C353.983 130.129 360.359 120.711 368.374 112.794C376.389 104.877 385.884 98.6162 396.318 94.3691C406.753 90.1221 417.921 87.9718 429.186 88.0412V88.0412ZM428.236 242.661C441.855 242.748 455.194 238.794 466.565 231.3C477.937 223.805 486.831 213.106 492.122 200.557C497.413 188.007 498.863 174.17 496.289 160.796C493.715 147.422 487.233 135.112 477.662 125.423C468.091 115.733 455.862 109.1 442.521 106.361C429.18 103.622 415.326 104.902 402.712 110.038C390.098 115.173 379.291 123.934 371.656 135.213C364.022 146.491 359.904 159.781 359.823 173.4C359.765 182.44 361.489 191.403 364.896 199.778C368.303 208.152 373.326 215.772 379.679 222.204C386.033 228.636 393.591 233.754 401.922 237.264C410.254 240.774 419.195 242.608 428.236 242.661Z" fill="white" stroke="#263238" stroke-linecap="round" stroke-linejoin="round"/>
<path d="M429.22 83.202C446.194 83.2898 462.759 88.4108 476.821 97.917C490.882 107.423 501.808 120.887 508.214 136.605C514.621 152.323 516.221 169.588 512.811 186.215C509.402 202.843 501.136 218.085 489.061 230.013C476.985 241.941 461.643 250.019 444.975 253.224C428.307 256.429 411.062 254.617 395.425 248.018C379.787 241.418 366.458 230.328 357.125 216.151C347.792 201.974 342.875 185.347 342.996 168.374C343.162 145.653 352.333 123.927 368.498 107.96C384.662 91.9926 406.5 83.089 429.22 83.202V83.202ZM428.27 237.72C441.884 237.804 455.217 233.848 466.584 226.354C477.95 218.86 486.839 208.164 492.126 195.618C497.414 183.072 498.862 169.24 496.288 155.871C493.715 142.502 487.234 130.197 477.667 120.51C468.1 110.824 455.875 104.193 442.539 101.454C429.202 98.7159 415.353 99.9936 402.743 105.126C390.133 110.258 379.328 119.014 371.694 130.288C364.061 141.561 359.941 154.844 359.857 168.459C359.801 177.498 361.526 186.461 364.934 194.834C368.342 203.207 373.366 210.827 379.718 217.258C386.071 223.69 393.629 228.807 401.959 232.318C410.289 235.829 419.23 237.664 428.27 237.72V237.72Z" fill="white" stroke="#263238" stroke-linecap="round" stroke-linejoin="round"/>
<path d="M421.593 333.089L432.579 333.156C435.279 333.173 437.482 330.997 437.499 328.296L437.906 261.583C437.923 258.882 435.747 256.679 433.046 256.663L422.06 256.596C419.359 256.579 417.156 258.755 417.14 261.456L416.732 328.169C416.716 330.87 418.892 333.073 421.593 333.089Z" fill="white" stroke="#263238" stroke-linecap="round" stroke-linejoin="round"/>
<path d="M436.624 472.01H415.925L413.344 447.066H439.205L436.624 472.01Z" fill="white" stroke="#263238" stroke-linecap="round" stroke-linejoin="round"/>
<path d="M411.018 365.834L392.34 393.172V433.516C392.34 434.133 392.585 434.725 393.021 435.161C393.457 435.597 394.049 435.843 394.666 435.843V435.843C395.285 435.843 395.878 435.598 396.317 435.162C396.756 434.726 397.005 434.135 397.009 433.516V421.834L411.001 416.502L411.018 365.834Z" fill="white" stroke="#263238" stroke-linecap="round" stroke-linejoin="round"/>
<path d="M443.993 365.834L462.671 393.172V433.516C462.667 434.135 462.418 434.726 461.979 435.162C461.54 435.598 460.946 435.843 460.328 435.843V435.843C459.711 435.843 459.119 435.597 458.683 435.161C458.247 434.725 458.002 434.133 458.002 433.516V421.834L443.993 416.502V365.834Z" fill="white" stroke="#263238" stroke-linecap="round" stroke-linejoin="round"/>
<path d="M434.71 456.622L419.021 456.529C416.184 456.512 413.469 455.369 411.475 453.351C409.481 451.333 408.37 448.605 408.387 445.768L409.169 313.955C409.182 311.734 410.077 309.611 411.656 308.05C413.235 306.489 415.37 305.62 417.59 305.633L437.966 305.754C439.065 305.761 440.152 305.984 441.165 306.41C442.178 306.837 443.097 307.459 443.87 308.241C444.643 309.023 445.254 309.95 445.669 310.968C446.083 311.986 446.293 313.076 446.287 314.175L445.505 445.971C445.499 447.38 445.214 448.774 444.668 450.073C444.121 451.372 443.324 452.55 442.321 453.54C441.318 454.529 440.129 455.311 438.823 455.84C437.517 456.369 436.119 456.635 434.71 456.622V456.622Z" fill="#263238" stroke="#263238" stroke-linecap="round" stroke-linejoin="round"/>
<path d="M408.403 435.911V445.606C408.392 447.029 408.662 448.441 409.197 449.76C409.732 451.079 410.523 452.279 411.523 453.291C412.523 454.304 413.713 455.109 415.025 455.661C416.337 456.213 417.745 456.501 419.168 456.507L434.569 456.609C435.994 456.618 437.407 456.346 438.727 455.809C440.046 455.272 441.248 454.481 442.261 453.479C443.275 452.478 444.082 451.287 444.635 449.974C445.189 448.661 445.478 447.252 445.487 445.827V435.911H408.403Z" fill="white" stroke="#263238" stroke-linecap="round" stroke-linejoin="round"/>
<path d="M427.03 435.843C426.129 435.843 425.266 435.485 424.629 434.848C423.992 434.211 423.634 433.347 423.634 432.447V368.466C423.634 367.565 423.992 366.702 424.629 366.065C425.266 365.428 426.129 365.07 427.03 365.07C427.931 365.07 428.794 365.428 429.431 366.065C430.068 366.702 430.426 367.565 430.426 368.466V432.481C430.417 433.375 430.055 434.231 429.419 434.86C428.784 435.49 427.925 435.843 427.03 435.843Z" fill="white" stroke="#263238" stroke-linecap="round" stroke-linejoin="round"/>
<path d="M382.644 163.161V163.738H380.352V163.008C380.352 161.072 379.605 159.952 377.907 159.952C376.209 159.952 375.445 161.072 375.445 162.974C375.445 167.762 382.644 168.221 382.644 174.249C382.644 177.492 381.082 179.597 377.805 179.597C374.528 179.597 373 177.492 373 174.249V173.026H375.258V174.368C375.258 176.303 376.056 177.424 377.771 177.424C379.486 177.424 380.267 176.303 380.267 174.368C380.267 169.596 373.119 169.138 373.119 163.127C373.119 159.731 374.647 157.778 377.856 157.778C381.065 157.778 382.644 159.918 382.644 163.161Z" fill="#263238"/>
<path d="M392.357 167.491V169.63H387.144V177.254H393.562V179.428H384.767V158.016H393.562V160.189H387.144V167.491H392.357Z" fill="#263238"/>
<path d="M398.164 175.115L397.332 179.428H395.142L399.234 158.016H402.63L406.722 179.428H404.328L403.513 175.115H398.164ZM398.47 173.06H403.241L400.83 160.716L398.47 173.06Z" fill="#263238"/>
<path d="M413.412 158.016C416.808 158.016 418.183 159.714 418.183 162.906V164.604C418.183 166.964 417.368 168.425 415.535 169.002C417.487 169.579 418.217 171.175 418.217 173.468V176.864C418.15 177.746 418.296 178.631 418.642 179.445H416.231C415.9 178.621 415.766 177.731 415.84 176.847V173.451C415.84 171.023 414.703 170.258 412.716 170.258H411.018V179.411H408.624V158.016H413.412ZM412.801 168.102C414.703 168.102 415.84 167.491 415.84 165.181V163.127C415.84 161.208 415.127 160.189 413.361 160.189H411.035V168.102H412.801Z" fill="#263238"/>
<path d="M430.137 163.195V165.113H427.896V163.008C427.896 161.089 427.132 159.935 425.383 159.935C423.634 159.935 422.802 161.14 422.802 163.008V174.334C422.802 176.252 423.6 177.407 425.315 177.407C427.03 177.407 427.828 176.252 427.828 174.334V171.549H430.086V174.198C430.086 177.441 428.558 179.58 425.247 179.58C421.936 179.58 420.459 177.441 420.459 174.198V163.195C420.459 159.951 421.987 157.812 425.247 157.812C428.507 157.812 430.137 159.951 430.137 163.195Z" fill="#263238"/>
<path d="M434.688 169.8V179.445H432.311V158.016H434.688V167.644H439.952V158.016H442.329V179.428H439.952V169.8H434.688Z" fill="#263238"/>
<path d="M447.151 158.016V179.428H444.774V158.016H447.151Z" fill="#263238"/>
<path d="M451.668 179.428H449.529V158.016H452.551L457.509 173.485V158.016H459.615V179.428H457.136L451.668 162.125V179.428Z" fill="#263238"/>
<path d="M471.552 163.195V165.029H469.293V163.008C469.293 161.089 468.529 159.935 466.78 159.935C465.031 159.935 464.267 161.089 464.267 163.008V174.334C464.267 176.252 465.065 177.407 466.78 177.407C468.495 177.407 469.293 176.252 469.293 174.334V170.055H467.086V167.949H471.552V174.249C471.552 177.492 470.023 179.631 466.712 179.631C463.401 179.631 461.924 177.492 461.924 174.249V163.195C461.924 159.951 463.452 157.812 466.712 157.812C469.972 157.812 471.552 159.951 471.552 163.195Z" fill="#263238"/>
<path d="M475.797 176.456V179.428H473.504V176.456H475.797Z" fill="#263238"/>
<path d="M480.534 176.456V179.428H478.242V176.456H480.534Z" fill="#263238"/>
<path d="M485.271 176.456V179.428H482.979V176.456H485.271Z" fill="#263238"/>
<path d="M671.559 804.852C707.664 804.852 736.932 799.53 736.932 792.966C736.932 786.401 707.664 781.08 671.559 781.08C635.455 781.08 606.186 786.401 606.186 792.966C606.186 799.53 635.455 804.852 671.559 804.852Z" fill="#263238" stroke="#263238" stroke-linecap="round" stroke-linejoin="round"/>
<path d="M591.006 594.3L594.113 598.97C594.345 601.588 594.759 604.186 595.353 606.746C595.981 608.292 597.543 610.788 596.915 612.655C596.287 614.523 594.113 616.697 594.113 612.961C594.201 611.398 594.098 609.83 593.808 608.292L587.27 604.896L591.006 594.3Z" fill="white" stroke="#263238" stroke-linecap="round" stroke-linejoin="round"/>
<path d="M580.478 609.463C580.478 609.463 581.837 614.455 582.516 616.493C583.195 618.53 585.912 620.11 587.729 620.806C589.546 621.502 590.446 620.908 589.766 619.77C588.707 618.59 587.49 617.562 586.15 616.714L580.478 606.288V609.463Z" fill="white" stroke="#263238" stroke-linecap="round" stroke-linejoin="round"/>
<path d="M622.691 513.271L607.51 508.415L600.837 538.775C600.837 538.775 591.125 560.629 589.902 569.73C588.753 577.007 587.212 584.217 585.284 591.328L581.972 597.119L579.493 608.003L584.112 616.713C585.83 617.228 587.602 617.542 589.393 617.647C591.566 617.647 591.889 617.036 591.566 616.102C591.244 615.168 589.698 614.54 589.698 614.54C589.698 614.54 593.434 614.234 594.062 612.978C594.69 611.721 590.327 610.176 590.327 610.176C590.327 610.176 594.062 609.565 593.723 608.308C593.383 607.052 589.495 607.307 589.495 607.307C591.307 603.01 592.214 598.386 592.16 593.723C595.438 588.102 612.893 557.861 612.893 554.567C612.978 550.916 622.691 513.271 622.691 513.271Z" fill="white" stroke="#263238" stroke-linecap="round" stroke-linejoin="round"/>
<path d="M589.291 614.472C588.231 614.245 587.196 613.915 586.201 613.487C584.874 612.31 583.73 610.942 582.805 609.429" stroke="#263238" stroke-linecap="round" stroke-linejoin="round"/>
<path d="M590.378 610.176L587.321 609.99L584.944 607.731" stroke="#263238" stroke-linecap="round" stroke-linejoin="round"/>
<path d="M704.059 510.843L709.526 549.71L692.512 586.744L685.228 578.848L693.735 546.06L686.45 513.271L704.059 510.843Z" fill="white" stroke="#263238" stroke-linecap="round" stroke-linejoin="round"/>
<path d="M644.561 462.23L613.912 476.527L626.681 541.39L679.794 542.919L695.772 474.829L663.46 461.72L644.561 462.23Z" fill="#263238" stroke="#263238" stroke-linecap="round" stroke-linejoin="round"/>
<path d="M638.906 442.753C638.906 442.753 638.176 446.863 642.948 453.553C644.119 455.251 644.748 454.453 644.748 454.453L642.948 465.252C644.3 467.547 646.252 469.43 648.595 470.699C650.938 471.967 653.582 472.573 656.243 472.451C661.897 472.451 664.733 464.131 664.733 464.131C664.342 464.267 663.205 452.636 663.205 452.636L647.923 427.879L636.665 430.12C636.665 430.12 631.673 428.813 632.573 436.471C633.473 444.129 638.906 442.753 638.906 442.753Z" fill="white" stroke="#263238" stroke-linecap="round" stroke-linejoin="round"/>
<path d="M676.636 421.8C676.636 421.8 672.221 406.722 661.354 401.764C650.487 396.806 638.839 404.022 634.78 413.48C630.722 422.938 638.839 442.753 638.839 442.753C638.839 442.753 643.78 454.011 649.638 456.711C655.496 459.411 661.218 454.928 666.618 447.729C672.017 440.529 677.094 429 676.636 421.8Z" fill="#263238" stroke="#263238" stroke-linecap="round" stroke-linejoin="round"/>
<path d="M680.1 434.195C688.924 434.195 696.078 427.544 696.078 419.338C696.078 411.132 688.924 404.48 680.1 404.48C671.275 404.48 664.122 411.132 664.122 419.338C664.122 427.544 671.275 434.195 680.1 434.195Z" fill="#263238" stroke="#263238" stroke-linecap="round" stroke-linejoin="round"/>
<path d="M615.033 620.636C615.033 620.636 620.432 673.274 620.432 688.182C620.432 703.091 621.791 727.814 622.691 739.513C623.59 751.212 626.732 768.786 626.732 768.786C626.732 768.786 624.49 767.887 623.59 771.945C622.691 776.003 622.232 776.886 618.191 778.244C614.15 779.603 610.974 782.303 612.774 784.544C614.574 786.785 624.49 787.702 631.69 789.502C638.889 791.302 639.806 789.044 639.806 784.102V769.686C639.806 769.686 644.748 693.141 644.748 690.424C644.748 687.707 646.547 623.336 646.547 623.336L615.033 620.636Z" fill="white" stroke="#263238" stroke-linecap="round" stroke-linejoin="round"/>
<path d="M628.379 626.002L646.106 639.161C646.361 630.009 646.547 623.336 646.547 623.336L626.171 621.638L628.379 626.002Z" fill="#263238" stroke="#263238" stroke-linecap="round" stroke-linejoin="round"/>
<path d="M631.656 789.57C638.873 791.37 639.772 789.112 639.772 784.17V769.754C633.914 766.596 631.282 776.054 629.415 775.154C627.547 774.254 626.698 768.854 626.698 768.854C626.698 768.854 624.457 767.954 623.557 772.013C622.657 776.071 622.198 776.954 618.157 778.312C614.116 779.671 610.94 782.37 612.74 784.612C614.54 786.853 624.49 787.702 631.656 789.57Z" fill="white" stroke="#263238" stroke-linecap="round" stroke-linejoin="round"/>
<path d="M659.164 621.977C659.164 621.977 664.563 666.125 665.022 675.125C665.48 684.124 692.937 766.087 692.937 766.087C692.937 766.087 695.637 779.671 696.995 783.644C698.353 787.617 699.236 788.602 701.936 788.602C704.636 788.602 713.194 788.602 714.111 785.002C715.028 781.403 709.594 770.586 708.253 766.987C706.911 763.387 704.653 759.787 704.653 757.987C704.653 756.187 697.861 712.498 694.737 697.64C691.612 682.783 687.079 675.125 687.079 675.125L696.18 613.878L659.164 621.977Z" fill="white" stroke="#263238" stroke-linecap="round" stroke-linejoin="round"/>
<path d="M694.889 622.028L678.877 617.647L659.164 621.977C659.164 621.977 660.063 629.313 661.15 638.601L694.601 623.998L694.889 622.028Z" fill="#263238" stroke="#263238" stroke-linecap="round" stroke-linejoin="round"/>
<path d="M701.936 788.602C704.653 788.602 713.194 788.602 714.111 785.002C715.028 781.403 709.594 770.586 708.253 766.987C707.115 763.947 705.332 760.908 704.857 758.955C693.378 754.914 692.971 766.087 692.971 766.087C692.971 766.087 695.671 779.671 697.029 783.644C698.387 787.617 699.236 788.602 701.936 788.602Z" fill="white" stroke="#263238" stroke-linecap="round" stroke-linejoin="round"/>
<path d="M705.094 777.786C699.338 778.261 697.47 781.08 697.012 783.729C698.353 787.702 699.253 788.602 701.936 788.602C704.619 788.602 713.194 788.602 714.111 785.002C714.456 783.815 714.441 782.552 714.068 781.373C713.695 780.194 712.98 779.153 712.015 778.38C711.05 777.607 709.877 777.138 708.645 777.033C707.413 776.927 706.177 777.189 705.094 777.786Z" fill="white" stroke="#263238" stroke-linecap="round" stroke-linejoin="round"/>
<path d="M635.561 465.676C635.561 465.676 640.248 508.942 638.448 514.8C636.648 520.658 619.532 541.815 619.532 541.815L619.991 555.789C615.492 562.051 612.578 569.311 611.501 576.946C609.242 590.53 606.543 622.436 606.543 622.436C606.543 622.436 623.658 626.036 634.016 627.835C644.374 629.635 649.298 628.277 649.298 628.277L653.798 613.419L656.039 628.277C663.792 629.433 671.617 630.04 679.455 630.094C691.629 630.094 700.629 620.177 700.629 620.177C700.629 620.177 696.18 590.904 696.18 587.763C696.18 584.621 685.822 550.407 685.822 550.407L686.247 538.181C684.182 534.973 681.792 531.985 679.115 529.267C673.716 523.408 669.148 508.076 669.148 508.076L673.019 464.912L669.623 463.214L664.224 507.176L644.408 506.734L639.789 463.843L635.561 465.676Z" fill="white" stroke="#263238" stroke-linecap="round" stroke-linejoin="round"/>
<path d="M638.261 560.391L679.047 553.786" stroke="#263238" stroke-linecap="round" stroke-linejoin="round"/>
<path d="M634.95 554.889L647.447 552.682" stroke="#263238" stroke-linecap="round" stroke-linejoin="round"/>
<path d="M653.764 613.419V603.52" stroke="#263238" stroke-linecap="round" stroke-linejoin="round"/>
<path d="M645.206 602.62H661.863" stroke="#263238" stroke-linecap="round" stroke-linejoin="round"/>
<path d="M613.912 476.527L601.449 510.232L625.119 516.922" fill="#263238"/>
<path d="M613.912 476.527L601.449 510.232L625.119 516.922" stroke="#263238" stroke-linecap="round" stroke-linejoin="round"/>
<path d="M695.772 474.829L710.121 512.66L686.45 516.922" fill="#263238"/>
<path d="M695.772 474.829L710.121 512.66L686.45 516.922" stroke="#263238" stroke-linecap="round" stroke-linejoin="round"/>
</svg>
